<svg id="17de76e1-72c0-4654-a873-4c76c5bd49a5" data-name="Layer 1" xmlns="http://www.w3.org/2000/svg" viewBox="0 0 35.27 35.27"><title>social--facebook</title><path d="M39.13,33.3a1.93,1.93,0,0,1-.55,1.38,1.84,1.84,0,0,1-1.42.59h-9V21.57h4.56l.71-5.27H28.19V12.91A2.91,2.91,0,0,1,28.66,11a2.74,2.74,0,0,1,2.13-.71h2.83V5.51c-1.1-.1-2.47-.16-4.09-.16a6.86,6.86,0,0,0-5,1.82,6.83,6.83,0,0,0-1.89,5.19V16.3H18.11v5.27h4.57v13.7H5.83a1.84,1.84,0,0,1-1.42-.59,1.93,1.93,0,0,1-.55-1.38V2a1.88,1.88,0,0,1,2-2H37.16a1.93,1.93,0,0,1,1.38.55A1.84,1.84,0,0,1,39.13,2Z" transform="translate(-3.86 0)" style="fill:#666"/></svg>