<svg id="f5df60a7-81e3-45ad-a86b-f754849af55d" data-name="Layer 1" xmlns="http://www.w3.org/2000/svg" viewBox="0 0 35.27 35.27"><title>social--instagram</title><path d="M39.05,10.31q.08,2.2.08,7.33T39,25a14.51,14.51,0,0,1-.67,3.9,9.14,9.14,0,0,1-2.16,3.42,9.25,9.25,0,0,1-3.43,2.17,15.18,15.18,0,0,1-3.89.67c-1.5.07-3.95.11-7.37.11s-5.86,0-7.36-.11a12.86,12.86,0,0,1-3.89-.75,8.37,8.37,0,0,1-3.43-2.09A9.14,9.14,0,0,1,4.65,28.9,14.51,14.51,0,0,1,4,25q-.12-2.25-.12-7.36T4,10.28a14.37,14.37,0,0,1,.67-3.9A9.15,9.15,0,0,1,10.24.79,14.76,14.76,0,0,1,14.13.12Q16.38,0,21.49,0c3.42,0,5.87,0,7.37.12a14.76,14.76,0,0,1,3.89.67,9.15,9.15,0,0,1,5.59,5.59A15.61,15.61,0,0,1,39.05,10.31ZM35.27,28a16.12,16.12,0,0,0,.63-4.25C36,22.62,36,21,36,18.9V16.38c0-2.16,0-3.78-.08-4.88a15.44,15.44,0,0,0-.63-4.26,5.68,5.68,0,0,0-3.38-3.38,15.42,15.42,0,0,0-4.25-.63c-1.16,0-2.79-.08-4.89-.08H20.23c-2.09,0-3.72,0-4.88.08a16.12,16.12,0,0,0-4.25.63A5.68,5.68,0,0,0,7.72,7.24a15.44,15.44,0,0,0-.63,4.26C7,12.65,7,14.28,7,16.38V18.9c0,2.1,0,3.72.08,4.88A16.12,16.12,0,0,0,7.72,28a6,6,0,0,0,3.38,3.39,16.65,16.65,0,0,0,4.25.62c1.16.06,2.79.08,4.88.08h2.52c2.16,0,3.78,0,4.89-.08a15.91,15.91,0,0,0,4.25-.62A6,6,0,0,0,35.27,28ZM21.49,8.58A8.85,8.85,0,0,1,26,9.8a9.13,9.13,0,0,1,3.31,3.31,9,9,0,0,1,0,9.05A9.06,9.06,0,0,1,26,25.47a9,9,0,0,1-9,0,9.06,9.06,0,0,1-3.31-3.31,9,9,0,0,1,0-9A9.13,9.13,0,0,1,17,9.8,8.84,8.84,0,0,1,21.49,8.58Zm0,15a5.91,5.91,0,0,0,5.91-5.9,5.91,5.91,0,0,0-5.91-5.91,5.91,5.91,0,0,0-5.9,5.91,5.91,5.91,0,0,0,5.9,5.9ZM33.07,8.19a2.13,2.13,0,0,0-4.25,0,2.15,2.15,0,0,0,2.12,2.12,1.92,1.92,0,0,0,1.46-.63A2.44,2.44,0,0,0,33.07,8.19Z" transform="translate(-3.86)" style="fill:#666"/></svg>