<svg id="6a593275-de74-49ba-a1ec-805102d132c1" data-name="Layer 1" xmlns="http://www.w3.org/2000/svg" viewBox="0 0 42.99 30.23"><title>social--youtube</title><path d="M42.12,7.24a35.57,35.57,0,0,1,.79,6.46L43,17.64l-.08,3.93a36,36,0,0,1-.79,6.54,5.47,5.47,0,0,1-1.41,2.36,5.53,5.53,0,0,1-2.44,1.42,56.41,56.41,0,0,1-9.61.78l-7.17.08-7.16-.08a56.41,56.41,0,0,1-9.61-.78,5.53,5.53,0,0,1-2.44-1.42A5.47,5.47,0,0,1,.87,28.11a36,36,0,0,1-.79-6.54L0,17.64c0-1.16,0-2.47.08-3.94A35.57,35.57,0,0,1,.87,7.24,5.45,5.45,0,0,1,4.72,3.39a56,56,0,0,1,9.61-.79l7.16-.08,7.17.08a56,56,0,0,1,9.61.79,5.45,5.45,0,0,1,3.85,3.85Zm-25,16.85,11.25-6.45L17.09,11.26Z" transform="translate(0 -2.52)" style="fill:#666"/></svg>