<svg data-name="Layer 1" xmlns="http://www.w3.org/2000/svg" viewBox="0 0 188.63 157.85"><path d="M35.58 62.85q.53-8.28 1.07-16.55v-.64c0-.57-.4-.87-.94-.7-.7.22-1.4.47-2.08.75-1.1.47-2.24.86-3.35 1.3-1.7.68-3.38 1.42-5 2.18-.59.26-.68.87-.71 1.46l-.33 7.84q-.45 10.24-.88 20.5c0 .59-.17 1-.78 1.22a22.14 22.14 0 01-6.08 1.08c-1.2.01-1.5-.29-1.5-1.54l.27-7.75.45-14.68c0-1 .13-2 .2-3 0-.17.05-.35-.12-.46s-.34 0-.5.14a16.48 16.48 0 01-4.92 2.24c-1.1.23-2.16.58-3.25.86s-1.28 0-1.39-1c-.2-1.89-.39-3.77-.58-5.66-.09-.91.09-1.17 1-1.42s1.62-.4 2.41-.67c.38-.13.74-.37 1.12-.51 1.22-.47 2.24-1.31 3.41-1.86.57-.26 1.06-.66 1.63-.9a2.09 2.09 0 001.21-1.92c.1-.77.09-1.56.2-2.33a34.57 34.57 0 00.33-5c0-.78.14-1.59.1-2.36-.11-1.88.39-3.73.27-5.57a55.65 55.65 0 010-6.06c.17-3.81.2-7.63.46-11.43.09-1.38.11-2.78.12-4.17 0-.58.23-.81.81-.89 2.34-.32 4.68-.69 7-1 .73-.11.93.06 1.07.77a9.43 9.43 0 01.15 2.19c-.17 6-.32 11.94-.5 17.92-.06 2-.22 3.95-.29 5.93-.05 1.57 0 3.15-.05 4.72a23.85 23.85 0 01-.17 3.38.46.46 0 00.13.46c.13.12.26.06.4 0a23.85 23.85 0 002.41-1c.55-.32 1.19-.45 1.75-.79a10.64 10.64 0 012-.63 11.75 11.75 0 011.15-.5 20.79 20.79 0 002.56-1 1.39 1.39 0 00.89-1.33c.3-3.55.62-7.11.93-10.66l2-22.14c.07-.78.31-1 1.1-1.11 2.34-.22 4.67-.41 7-.62.52 0 .74.21.77.68a6.79 6.79 0 010 1l-2.32 29.16v1c0 .62.11.72.69.55 1-.29 2-.63 3-.9 1.49-.39 3-.73 4.48-1.12.46-.11.65 0 .62.5-.14 2.1-.25 4.21-.35 6.32a.83.83 0 01-.51.78 9.88 9.88 0 01-2.88.92 40.06 40.06 0 00-4.42 1.32 1.24 1.24 0 00-.93 1.23c-.16 1.77-.33 3.53-.49 5.29-.2 2.17-.49 4.34-.75 6.5-.17 1.38-.35 2.78-.59 4.16a24.08 24.08 0 00-.19 3.19 21.41 21.41 0 01-.49 3.49 11.82 11.82 0 000 1.19 38.56 38.56 0 00-.4 4.25c0 1.89-.16 3.77-.33 5.65-.11 1.17-.07 2.35-.19 3.52a1.36 1.36 0 01-1.08 1.31 42.73 42.73 0 01-5.74 1c-.82.1-1.2-.35-1.15-1.17.34-5.63.7-11.25 1-16.88M166.42 70.36a7.74 7.74 0 01-3.8-.86 9 9 0 01-4.12-4.89c-.44-1-.8-2-1.21-3-.12-.3-.29-.61-.66-.62s-.51.28-.71.54c-1.55 2-2.94 4.14-4.54 6.13-1.1 1.35-2 2.85-3.1 4.23-1.23 1.57-2.15 3.36-3.47 4.87a6.73 6.73 0 01-4.27 2c-1.53.27-2.55-.9-3.18-2.35a14 14 0 01-.8-3.9c-.59-4.55-.25-9.12-.37-13.67a81.12 81.12 0 01.64-9.47c.43-4.72.84-9.44 1.34-14.14.78-7.22 1.46-14.45 2.33-21.65.37-3 .7-6.07 1-9.1a.76.76 0 01.75-.78c2.2-.38 4.39-.77 6.59-1.18.53-.1.71.07.65.6-.5 4.48-1 9-1.5 13.44-.22 2-.41 3.94-.71 5.89-.27 1.76-.42 3.53-.75 5.29-.25 1.35-.24 2.75-.37 4.12-.24 2.61-.52 5.21-.76 7.81-.16 1.81-.41 3.61-.49 5.44-.1 2.28-.46 4.55-.68 6.82-.14 1.49-.2 3-.32 4.46a36 36 0 00-.21 5.61 8.75 8.75 0 00.33 2.15.87.87 0 001.45.5 3.16 3.16 0 001.06-1c.56-1 1.47-1.75 2.11-2.72.84-1.28 1.75-2.51 2.7-3.71.82-1 1.55-2.13 2.32-3.21a3.58 3.58 0 01.44-.51 3.58 3.58 0 001-3.12c-.2-1.72-.09-3.43-.19-5.14a48.46 48.46 0 01.36-6.93 19.46 19.46 0 01.85-4.91c.35-1 .31-2.07.64-3.07a18.58 18.58 0 012-3.68c.86-1.4 2-2.58 2.94-3.91a5.46 5.46 0 012.69-2.08c.53-.17.79-.67 1.27-.92a4.22 4.22 0 012.58-.91 7 7 0 001.84-.28 2.11 2.11 0 011.06 0 3.06 3.06 0 001.29.13 2.24 2.24 0 011.48.51 5.23 5.23 0 011.56 2.13 10.12 10.12 0 01.79 3.09c.11 1.27.72 2.49.51 3.78a15.54 15.54 0 01-1.15 4.81c-.84 1.61-1.74 3.19-2.57 4.79-.53 1-.94 2.11-1.51 3.12a33.86 33.86 0 01-2.2 3.17c-1.52 2.09-3.26 4-4.85 6-.36.46-.62 1-1 1.45a.69.69 0 00-.09.59c.29 2.1.6 4.19.88 6.29a6 6 0 00.9 2.34 2.34 2.34 0 003.17.81 4.37 4.37 0 001.28-1c2.44-2.77 4.94-5.49 7.3-8.32a94.39 94.39 0 005.46-7.93c.77-1.16 1.15-1.25 2.33-.47s2.29 1.88 3.44 2.8a1 1 0 01.24 1.45 95.11 95.11 0 01-6.41 9.98 77.42 77.42 0 01-8 8.43 22.79 22.79 0 01-3.83 3 5.69 5.69 0 01-3.82.83m-1.63-39.94a4.36 4.36 0 01-.49.61c-.45.44-.38 1-.63 1.53a10.43 10.43 0 00-1.5 4.59.8.8 0 010 .27 7.62 7.62 0 00-.14 4c0 .2.15.36.27.15a17.36 17.36 0 011.46-1.75c.62-.84.87-1.87 1.52-2.69a23.49 23.49 0 002.29-3.7c.26-.5.22-1.08.52-1.53a8.32 8.32 0 001.24-2.45 1.28 1.28 0 00.22-.17c.6-.62.47-1.53.87-2.23.16-.28-.44-.76-.75-.59-.53.29-1.18.29-1.68.65-.06.07-.1.18-.17.21-1.46.59-2.13 1.94-3 3.09zM85.82 27.47c-1.5-.08-3-.19-4.5-.32a.63.63 0 00-.71.47 28.47 28.47 0 00-1.21 3.62c-.61 2-1 4-1.77 5.95-1.17 3.06-2.13 6.18-3.28 9.24a30.06 30.06 0 00-.92 3.07 43.52 43.52 0 01-2.17 5.77c-.57 1.36-1.06 2.75-1.66 4.09-.76 1.68-1.61 3.33-2.39 5a16 16 0 01-1.3 2.1 1.18 1.18 0 01-1.65.36 2.15 2.15 0 01-.87-1.69 15.78 15.78 0 01-.08-2.91c.25-1.91.06-3.86.4-5.76a9.36 9.36 0 00.17-1.28c.21-4.12.4-8.23.6-12.34l.62-11.53a4.86 4.86 0 000-1.08c-.11-.73-.5-1-1.55-.75a11 11 0 01-3.66.3c-.87-.06-1.17.06-1.22.68-.4 4.87-1.2 9.7-1.42 14.58-.07 1.55-.37 3.09-.48 4.64s0 3.12 0 4.68v3.44c0 1.6.1 3.21.11 4.81a41.46 41.46 0 00.81 8.59 7.79 7.79 0 001.42 3.52 1 1 0 01.18.44 4 4 0 001.67 2 17 17 0 001.72 1 2.75 2.75 0 001.32.41 5.21 5.21 0 002-.46c.94-.37 1.57-1.26 2.59-1.45v-.06a28.66 28.66 0 012.62-3.59 3.21 3.21 0 00.63-.87A23.7 23.7 0 0173.3 69c.3-.6.45-1.32 1.12-1.72.19-.11.25-.4.29-.66a4.26 4.26 0 01.9-2.23.72.72 0 00.18-.44 5.5 5.5 0 01.95-2.14c.06-.11.07-.31.26-.26s.14.21.15.34c.25 1.86-.28 3.73 0 5.59a5 5 0 01.08 1.39 18.7 18.7 0 000 3.51c.09.9.14 1.81.14 2.71v2.82a.69.69 0 00.69.69 29.15 29.15 0 004.07-.23.69.69 0 00.59-.7c0-1.48-.06-3-.21-4.43a4.24 4.24 0 01-.09-.88c.17-2.51.37-5 .47-7.53.06-1.66 0-3.32.17-5 .32-2.61.21-5.24.47-7.85a5.8 5.8 0 00.22-1.55c-.18-1.18.26-2.33.07-3.52a4.27 4.27 0 010-1.38c.2-1.34.35-2.69.57-4 .72-4.45 1.29-8.92 1.94-13.38.08-.54-.1-.68-.59-.71M130.15 12.17c-.12 2.12-.23 4.23-.38 6.34a39.34 39.34 0 01-.45 4.47c-.09.44.06.57.54.56a23.48 23.48 0 004.32-.88.89.89 0 011.18.59 4.86 4.86 0 01.4 1.72c.05 1.05.11 2.09.1 3.14 0 1.54 0 1.24-1.35 1.7-1.6.55-3.25 1-4.87 1.46-1 .32-1.1.5-1.23 1.63-.23 2-.55 3.9-.75 5.84s-.42 3.86-.56 5.79c-.1 1.39-.3 2.8-.37 4.18a21.81 21.81 0 00-.28 3.14 15.31 15.31 0 01-.26 2.84c-.1 1.22-.09 2.46-.29 3.67-.28 1.64-.16 3.3-.48 4.94-.47 2.41-.55 4.88-.85 7.33-.26 2.16-.66 4.3-1 6.45a1.43 1.43 0 01-1.08 1.19 17.11 17.11 0 01-5.13.68c-.92 0-1-.14-.94-1.06.26-2.64.56-5.29.82-7.93.37-3.65.71-7.29 1.07-10.93.33-3.38.65-6.75 1-10.13.36-3.55.73-7.1 1.09-10.65.08-.76.18-1.53.27-2.3s-.26-1.05-1-1a19.33 19.33 0 00-3.18.75 25.62 25.62 0 01-2.75.52c-.8.11-1.14-.19-1.16-1 0-1.59.11-3.18 0-4.78 0-.61.42-.94.93-1.13 1.9-.7 3.81-1.37 5.72-2.06l.51-.18a2.11 2.11 0 001.65-2c.37-2.2.25-4.42.48-6.63.44-4.18.78-8.37 1.16-12.56a.62.62 0 01.61-.66q3.07-.45 6.14-.94c.62-.11.82.09.78.71-.15 2.4-.28 4.81-.42 7.22M144.56 146.48L148.07 94c.05-.78.15-1.56.21-2.35a1.78 1.78 0 011.56-1.69l9.32-2.24q8.91-2.13 17.83-4.23a29.85 29.85 0 014.52-.66c.45 0 .6.1.55.56q-.34 3.19-.67 6.41a.69.69 0 01-.54.65c-6.91 2.44-14 4.25-21.1 6-1.13.27-1.17.29-1.23 1.46q-.2 3.85-.37 7.71c-.07 1.58-.06 1.41 1.47 1.24 3.15-.36 6.15-1.37 9.26-1.85 1.88-.28 3.69-.9 5.55-1.28 1.44-.29 2.87-.69 4.33-.91h.71c.42 0 .55.18.51.57q-.43 4.13-.85 8.26c-.06.56-.51.57-.88.67-2.34.66-4.7 1.27-7 2-4.64 1.4-9.25 2.86-13.88 4.28a1.2 1.2 0 00-.86 1.25c-.15 2.1-.29 4.19-.44 6.29q-.54 7.35-1.07 14.7c0 .5-.11 1-.13 1.5s.24.81.84.77c2.23-.16 4.46-.39 6.69-.63l12.79-1.48c.8-.08.88 0 .8.81-.22 2.25-.49 4.5-.68 6.76a1.13 1.13 0 01-1 1.14 121.8 121.8 0 01-21.87 3.48c-1.57.12-3.13.31-4.7.45a8.55 8.55 0 01-1.43 0 1.93 1.93 0 01-2.05-2.26c.08-1.64.21-3.29.31-4.93M76.47 148.44c.08-.7-.15-.91-.69-.87-.72 0-1.45.06-2.17.08-3.44.11-6.87.37-10.31.34a1.3 1.3 0 01-1.16-.58 24.67 24.67 0 01-.37-3.35c-.06-2.05 0-9.63.12-11.68.45-9.11.71-33.67 1.18-44a1.52 1.52 0 00-.65-1.32c-1 0-4.48.6-4.77.63l-3.78.53a6.32 6.32 0 00-1 .7c-.12 2.08-.25 4.16-.41 6.23-.4 5-.71 10.07-.81 15.12q-.33 16.78-.64 33.56c-.09 4.36-.22 8.71.11 13.07.07.93.07.95 1 .9l3.45-.15c5.59-.29 11.19-.38 16.76-1a12.32 12.32 0 003.68-.85.81.81 0 00.57-1 28.8 28.8 0 010-6.43M108.47 123.35c.47-8.39.91-17.32 1.53-26.24 0-.7.12-1.4.1-2.09 0-1 .84-1.24 1.54-1.49a64.28 64.28 0 017.89-2c7.13-1.58 14.27-3.15 21.45-4.56l.33-.06c.91-.15.9-.15.8.73-.24 1.85-.46 3.7-.7 5.55-.11.86-.1 2.7-1 2.81a29.11 29.11 0 00-3 .71c-3.72.92-7.46 1.8-11.22 2.6a41.89 41.89 0 01-5.11.85c-.66.06-1 .36-1 1 0 2.33-.16 7.76-.19 10.09 0 .76.35 1 1.08.91 2.85-.52 5.72-.87 8.62-1.16 2.18-.21 4.36-.58 6.54-.88 1.09-.15 2.19-.19 3.27-.42.42-.09.53.1.48.45-.24 1.94-.5 5.45-.73 7.39-.06.51-.48.56-.87.65-1.14.27-2.27.55-3.43.76-2 .36-3.93 1-5.94 1.4-2.74.52-5.48 1.06-8.22 1.59-.93.18-1.4.7-1.49 2.91-.12 2.73-.76 14.2-.91 18-.13 3-.31 5.92-.44 8.89 0 .43-.12.71-.65.79-2.52.37-5 .86-7.55 1.16-1 .12-1.24-.06-1.24-1.06 0-4.43.06-8.85 0-13.28-.07-5.14-.08-10.29.06-16M87.48 88.91c-.23 3.08-.41 6.16-.49 9.25-.32 11.42-.59 22.84-.93 34.26q-.33 11 .13 22c0 .55.19.69.73.63 2.26-.28 4.53-.53 6.8-.79 1.1-.12 1.17-.19 1.21-1.28.1-3.25.15-6.5.3-9.75.36-7.62.58-15.25.87-22.87h.17q.49-16.27 1-32.56a2.36 2.36 0 00-.07-.8c-3.29.42-6.48 1.28-9.72 2" fill="#666"/><path d="M108.22 25.67c.45 1.54-.44 2.53-2 3.24a12.39 12.39 0 01-1.51.73c-.43.13-1 .21-1.16.82 0 .19-.26.25-.44.28a.88.88 0 00-.6.31 6.06 6.06 0 01-2.11 1.75c-.67.35-1 1.08-1.44 1.62a15.05 15.05 0 00-2.39 3 3.24 3.24 0 004.16 4.68c1.68-.62 3.4-1.1 5.12-1.61a1 1 0 01.47-.05c1.14.35 2.33.07 3.46.3a3.53 3.53 0 012.54 2.12 12.68 12.68 0 011 2.28 4.71 4.71 0 01.23 1.34 25.63 25.63 0 01-.59 5.52c-.19.67-.61 1.29-.76 1.93a11.54 11.54 0 01-1.63 3.16 14.87 14.87 0 00-1.25 2.53 4.8 4.8 0 01-.85 1.12A23.73 23.73 0 01106 64a36.59 36.59 0 00-2.73 3.11c-.47.57-1 1.11-1.49 1.65a15.76 15.76 0 00-1.4 2 1.18 1.18 0 01-.3.36c-1.34.87-2 2.31-3.06 3.44-.56.62-1.22 1.14-1.78 1.76a35.11 35.11 0 01-3.33 3.12c-.33.29-.52.33-.78-.09-.91-1.44-1.84-2.88-2.78-4.3a.62.62 0 010-.85c1.21-1.53 2.3-3.15 3.46-4.72.64-.85 1.43-1.62 2.15-2.42a13 13 0 001.66-2 7.76 7.76 0 011.19-1.38 26.44 26.44 0 003-3.63c.62-.93 1.14-1.93 1.75-2.87.42-.64 1-1.16 1.36-1.84a22.3 22.3 0 001.91-4.19 10.65 10.65 0 00.48-1.41c.29-1.74-1.17-3.08-3.12-2.93a16.3 16.3 0 00-3 .94 9.32 9.32 0 01-4 .62 6.64 6.64 0 00-1.6 0 3.31 3.31 0 01-2.16-.63 7.52 7.52 0 01-3.27-5.71 10.48 10.48 0 011.17-5.64A24.74 24.74 0 0193.78 30a23.42 23.42 0 012.91-3c2.34-1.89 4.55-4 7.38-5.17a18 18 0 012.38-.81c1-.24 1.39.09 1.53 1.05a16 16 0 01.24 3.57M39.68 112.6a61.35 61.35 0 00-9.68 6.53h-.16a8.63 8.63 0 01-1-1.2 11.15 11.15 0 01-2.84-4.27 11.49 11.49 0 01-.72-3.88c.05-.8.05-1.75 1.85-1.55a2.34 2.34 0 011.61.89 21.63 21.63 0 011.39 2.6c.16.28.29.64.72.34a23.5 23.5 0 002.6-2c.32-.29.27-.55.07-.88-.44-.69-.88-1.39-1.27-2.11a6.5 6.5 0 00-5.56-3.74c-1.58-.11-3.21-.16-4.47 1A6.06 6.06 0 0020 109a9.68 9.68 0 01-1.68 6c-.2.28-.51.72-.69 1-2.6 4.21-5.25 8.38-7.56 12.77-.73 1.4-1.78 2.57-2.62 3.9-.33.53-.88.42-1.09-.18a3 3 0 01-.1-.8c0-2.24-.27-4.46-.28-6.7 0-3.87-.22-7.75-.25-11.62 0-.82-.33-1-1.15-.88a31.16 31.16 0 01-3.2.28c-.82 0-1.07.44-1.09 1.24-.09 5.47-.36 10.9-.29 16.33.1 1.35.2 2.71.31 4.06a12 12 0 00.6 3.35c.87 2.19 3.63 3.35 5.51 2.18a13.54 13.54 0 004.24-4c3.61-5.4 6.65-11.13 9.88-16.76a5 5 0 01.38-.63.74.74 0 011.31.13 3.79 3.79 0 00.6.84c.84.9 1.65 1.83 2.46 2.77-2.41 2.84-5.61 6.34-6.23 10.14a6.18 6.18 0 00.7 4.26 2.5 2.5 0 001 .89 3.37 3.37 0 002.46.73 11.93 11.93 0 003.76-.93c2.54-1.07 5-2.23 6-5.09a14.5 14.5 0 00.46-9.4 1.12 1.12 0 01.38-1.35c.51-.44 1.08-.79 1.61-1.2 1.65-1.26 3.35-2.45 5.06-3.62a.57.57 0 00.24-.46 12.78 12.78 0 00-.32-3.37.55.55 0 00-.8-.33m-15.47 21.69a1.1 1.1 0 01-1.07-.71c-.42-1.2 1.3-3.1 1.94-3.92a20.17 20.17 0 013.59-3.5h.11c1.61 3.23-1.44 6.86-4.62 8.15M4.53 103.92a5.58 5.58 0 00-1.41.06 3.33 3.33 0 00-1.81.49 2.69 2.69 0 00-.95 1.45 2.7 2.7 0 00.29 1.93 2.21 2.21 0 001.69 1 5.25 5.25 0 001.53-.07A2.35 2.35 0 006 107.44a3.52 3.52 0 00-.15-2.53 1.81 1.81 0 00-.75-.82 1.59 1.59 0 00-.52-.17M169.29 29.47zM164.77 30.43l.01.01.01-.02-.02.01" fill="#666"/></svg>