<svg data-name="Layer 1" xmlns="http://www.w3.org/2000/svg" viewBox="0 0 42.99 30.23"><path d="M42.12 4.72a35.57 35.57 0 0 1 .79 6.46l.09 3.94-.08 3.93a36 36 0 0 1-.79 6.54 5.47 5.47 0 0 1-1.41 2.36 5.53 5.53 0 0 1-2.44 1.42 56.41 56.41 0 0 1-9.61.78l-7.17.08-7.16-.08a56.41 56.41 0 0 1-9.61-.78 5.53 5.53 0 0 1-2.44-1.42 5.47 5.47 0 0 1-1.42-2.36 36 36 0 0 1-.79-6.54L0 15.12c0-1.16 0-2.47.08-3.94a35.57 35.57 0 0 1 .79-6.46A5.45 5.45 0 0 1 4.72.87a56 56 0 0 1 9.61-.79L21.49 0l7.17.08a56 56 0 0 1 9.61.79 5.45 5.45 0 0 1 3.85 3.85zm-25 16.85l11.25-6.45-11.28-6.38z" fill="#666"/></svg>