<svg data-name="Layer 1" xmlns="http://www.w3.org/2000/svg" viewBox="0 0 35.27 35.27"><path d="M35.19 10.31q.08 2.2.08 7.33T35.14 25a14.51 14.51 0 0 1-.67 3.9 9.14 9.14 0 0 1-2.16 3.42 9.25 9.25 0 0 1-3.43 2.17 15.18 15.18 0 0 1-3.89.67c-1.5.07-3.95.11-7.37.11s-5.86 0-7.36-.11a12.86 12.86 0 0 1-3.89-.75 8.37 8.37 0 0 1-3.43-2.09A9.14 9.14 0 0 1 .79 28.9 14.51 14.51 0 0 1 .14 25q-.12-2.25-.12-7.36t.12-7.36a14.37 14.37 0 0 1 .67-3.9A9.15 9.15 0 0 1 6.38.79a14.76 14.76 0 0 1 3.89-.67Q12.52 0 17.63 0c3.42 0 5.87 0 7.37.12a14.76 14.76 0 0 1 3.89.67 9.15 9.15 0 0 1 5.59 5.59 15.61 15.61 0 0 1 .71 3.93zM31.41 28a16.12 16.12 0 0 0 .63-4.25c.1-1.13.1-2.75.1-4.85v-2.52c0-2.16 0-3.78-.08-4.88a15.44 15.44 0 0 0-.63-4.26 5.68 5.68 0 0 0-3.38-3.38 15.42 15.42 0 0 0-4.25-.63c-1.16 0-2.79-.08-4.89-.08h-2.54c-2.09 0-3.72 0-4.88.08a16.12 16.12 0 0 0-4.25.63 5.68 5.68 0 0 0-3.38 3.38 15.44 15.44 0 0 0-.63 4.26c-.09 1.15-.09 2.78-.09 4.88v2.52c0 2.1 0 3.72.08 4.88A16.12 16.12 0 0 0 3.86 28a6 6 0 0 0 3.38 3.39 16.65 16.65 0 0 0 4.25.62c1.16.06 2.79.08 4.88.08h2.52c2.16 0 3.78 0 4.89-.08a15.91 15.91 0 0 0 4.25-.62A6 6 0 0 0 31.41 28zM17.63 8.58a8.85 8.85 0 0 1 4.51 1.22 9.13 9.13 0 0 1 3.31 3.31 9 9 0 0 1 0 9.05 9.06 9.06 0 0 1-3.31 3.31 9 9 0 0 1-9 0 9.06 9.06 0 0 1-3.31-3.31 9 9 0 0 1 0-9 9.13 9.13 0 0 1 3.31-3.36 8.84 8.84 0 0 1 4.49-1.22zm0 15a5.91 5.91 0 0 0 5.91-5.9 5.91 5.91 0 0 0-5.91-5.91 5.91 5.91 0 0 0-5.9 5.91 5.91 5.91 0 0 0 5.9 5.9zM29.21 8.19a2.13 2.13 0 0 0-4.25 0 2.15 2.15 0 0 0 2.12 2.12 1.92 1.92 0 0 0 1.46-.63 2.44 2.44 0 0 0 .67-1.49z" fill="#666"/></svg>